<svg xmlns="http://www.w3.org/2000/svg" width="62" height="62" viewBox="0 0 62 62"><path d="M5,41v8a2,2,0,0,0,2,2H9a2,2,0,0,0,2-2V41a2,2,0,0,0-2-2H7A2,2,0,0,0,5,41Zm2,0H9v8H7Zm52,0H57V39h2Zm0,10H57V43h2ZM15,59H53a2,2,0,0,0,2-2V33a2,2,0,0,0-2-2H15a2,2,0,0,0-2,2V57A2,2,0,0,0,15,59Zm0-26H53V57H15Zm23.553,2.1A18.023,18.023,0,0,1,30.528,37H29a5,5,0,0,0-1,9.9v5.687A2.417,2.417,0,0,0,30.414,55h3.172a2.414,2.414,0,0,0,1.707-4.121l-1.172-1.172A.417.417,0,0,1,34,49.414V47.349A17.973,17.973,0,0,1,38.553,48.9l.211.1H44V35H38.764ZM26,42a3,3,0,0,1,3-3h1.528A20.043,20.043,0,0,0,38,37.541v8.918A20.043,20.043,0,0,0,30.528,45H29A3,3,0,0,1,26,42Zm6.707,9.121,1.172,1.172a.414.414,0,0,1-.293.707H30.414A.415.415,0,0,1,30,52.586V47h.528c.491,0,.982.028,1.472.069v2.345a2.4,2.4,0,0,0,.707,1.707ZM42,47H40V37h2ZM54,15V14a1,1,0,0,0-1-1H51a3,3,0,0,1-3-3V7h3V5h2V7a3,3,0,0,1,3,3H54a1,1,0,0,0-1-1H50v1a1,1,0,0,0,1,1h2a3,3,0,0,1,3,3v3H53v2H51V17a3,3,0,0,1-3-3h2a1,1,0,0,0,1,1ZM37,13h4.051a11,11,0,1,0,0-2H37a3,3,0,0,0-3,3V27H30V26a3,3,0,0,0-3-3H16a1,1,0,0,1-1-1V21h8V18a9.01,9.01,0,0,0-5.623-8.337,5,5,0,1,0-6.754,0A9.01,9.01,0,0,0,5,18v3h8v1a3,3,0,0,0,3,3H27a1,1,0,0,1,1,1v1H6a5.006,5.006,0,0,0-5,5V58a5.006,5.006,0,0,0,5,5H58a5.006,5.006,0,0,0,5-5V32a5.006,5.006,0,0,0-5-5H36V14A1,1,0,0,1,37,13ZM52,3a9,9,0,1,1-9,9A9.011,9.011,0,0,1,52,3ZM11,6a3,3,0,1,1,3,3A3,3,0,0,1,11,6ZM7,18a7,7,0,1,1,14,0v1H7ZM61,32V58a3,3,0,0,1-3,3H6a3,3,0,0,1-3-3V32a3,3,0,0,1,3-3H58A3,3,0,0,1,61,32ZM17,43h2v2H17Zm0-4h2v2H17Zm0-4h2v2H17ZM49,49h2v2H49Zm0-4h2v2H49Zm0,8h2v2H49Z" transform="translate(-1 -1)" fill="#7e0a5d"></path></svg>