<svg xmlns="http://www.w3.org/2000/svg" width="62" height="62" viewBox="0 0 62 62"><path d="M49.3,32.5l-1.73-1,5.224-9.023,1.73,1Zm-2.316,4,1.156-2-1.73-1-1.156,2ZM16,11a5,5,0,1,1-5-5A5.006,5.006,0,0,1,16,11Zm-2,0a3,3,0,1,0-3,3A3,3,0,0,0,14,11Zm37,3v1H61a2,2,0,0,1,2,2v2a2,2,0,0,1-2,2h-.424l-1.158,2H60a3,3,0,0,1,3,3V60a3,3,0,0,1-3,3H4a3,3,0,0,1-3-3V26a3,3,0,0,1,3-3H32.582l-1.158-2H31a2,2,0,0,1-2-2V17a2,2,0,0,1,2-2H41V13a1,1,0,0,0-1-1H21v1.716l-1.617.551c-.046.117-.095.233-.146.35l.755,1.534-3.84,3.841-1.535-.755c-.116.052-.232.1-.35.146L13.716,21H8.284l-.551-1.617c-.117-.046-.233-.095-.35-.146l-1.535.755-3.84-3.841.755-1.534c-.052-.116-.1-.233-.146-.35L1,13.716V8.284l1.617-.551c.046-.116.1-.233.147-.349L2.009,5.85l3.84-3.841,1.535.755c.116-.052.232-.1.349-.147L8.284,1h5.432l.551,1.617c.117.046.233.1.35.146l1.535-.755,3.84,3.841-.755,1.534c.052.116.1.233.146.35L21,8.284V10H40a3,3,0,0,1,3,3v2h2V6.816a3,3,0,1,1,2,0V15h2V14a3,3,0,0,1,3-3h6a1,1,0,0,0,1-1V8.816a3,3,0,1,1,2,0V10a3,3,0,0,1-3,3H52a1,1,0,0,0-1,1Zm8-8a1,1,0,1,0,1-1A1,1,0,0,0,59,6ZM45,4a1,1,0,1,0,1-1A1,1,0,0,0,45,4ZM19,9.716l-1.19-.4-.155-.476a7.039,7.039,0,0,0-.419-1.006l-.228-.446.558-1.133L15.75,4.434l-1.133.558-.447-.228a7.044,7.044,0,0,0-1-.42l-.477-.154L12.284,3H9.716l-.4,1.19-.476.155a6.93,6.93,0,0,0-1,.42l-.447.228L6.251,4.435,4.435,6.251l.558,1.133-.228.446a6.98,6.98,0,0,0-.419,1l-.156.476L3,9.716v2.568l1.19.4.155.476a7.039,7.039,0,0,0,.419,1.006l.228.446L4.434,15.75,6.25,17.566l1.133-.558.447.228a7.043,7.043,0,0,0,1,.42l.476.155L9.716,19h2.568l.4-1.19.476-.155a6.93,6.93,0,0,0,1-.42l.447-.228,1.133.558,1.816-1.816-.558-1.133.228-.446a6.991,6.991,0,0,0,.419-1.006l.155-.476,1.191-.4ZM3,26v5H37.213l-3.474-6H4a1,1,0,0,0-1,1ZM61,60V33H53.629L50,39.269v5.409L44.192,47H42V39.269L38.371,33H3V60a1,1,0,0,0,1,1H60A1,1,0,0,0,61,60ZM44,40v4.923l4-1.6V40ZM58.261,25l-3.474,6H61V26a1,1,0,0,0-1-1Zm.005-4H33.734l9.842,17h4.847ZM61,17H31v2H61ZM7,27H5v2H7Zm4,0H9v2h2Zm4,0H13v2h2ZM5,35H33V51H5ZM7,49H31V37H7ZM5,53h8v6H5Zm2,4h4V55H7Zm8-4h8v6H15Zm2,4h4V55H17Zm8-4h8v6H25Zm2,4h4V55H27Zm10-8H35v2h2Zm2,2H59V49H39Zm-4,4H59V53H35Zm0,4H59V57H35Z" transform="translate(-1 -1)" fill="#0056be"></path></svg>