<svg xmlns="http://www.w3.org/2000/svg" width="62" height="62" viewBox="0 0 62 62"><path d="M60,1H16a3,3,0,0,0-3,3V21.082A8,8,0,0,0,9,28a11.95,11.95,0,0,0,4.054,8.969A9.011,9.011,0,0,0,18,44.051v2.158l-6.978,1.642A12.948,12.948,0,0,0,1,60.5V63H43V60.5A12.943,12.943,0,0,0,36.065,49H49v9a5,5,0,0,0,10,0V49h1a3,3,0,0,0,3-3V4A3,3,0,0,0,60,1ZM16,3H60a1,1,0,0,1,1,1V9H15V4A1,1,0,0,1,16,3ZM11,28a6.006,6.006,0,0,1,6-6h3.544a8.034,8.034,0,0,0,5-1.753l2.192-1.754A8.789,8.789,0,0,1,29,22c0,1.491-1.717,3-5,3v2c3.912,0,6.091-1.715,6.768-3.651A6.023,6.023,0,0,1,33,28a9.958,9.958,0,0,1-2,5.987V31.515a3.517,3.517,0,0,0-4.822-3.264,11.2,11.2,0,0,1-8.358,0A3.515,3.515,0,0,0,13,31.516v2.472A9.963,9.963,0,0,1,11,28Zm4,8V31.516a1.517,1.517,0,0,1,2.079-1.408,13.186,13.186,0,0,0,9.843,0A1.516,1.516,0,0,1,29,31.516V36a7,7,0,0,1-14,0ZM25.482,48.141l.376.088-.622,5.593-1.977-1.977ZM22,45a8.971,8.971,0,0,0,2-.232v1.955l-2,3.333-2-3.333V44.768A8.971,8.971,0,0,0,22,45Zm-3.482,3.141,2.223,3.705-1.977,1.977-.622-5.593ZM41,60.5V61H35V57H33v4H11V57H9v4H3v-.5A10.958,10.958,0,0,1,11.48,49.8l4.7-1.106,1.054,9.488L22,53.414l4.764,4.764,1.054-9.488,4.7,1.106A10.959,10.959,0,0,1,41,60.5ZM57,37V53H55V37Zm-5.132-2L54,31.8,56.132,35ZM51,37h2V53H51Zm3,24a3,3,0,0,1-3-3V55h6v3A3,3,0,0,1,54,61Zm6-14H59V35.7l-5-7.5-5,7.5V47H29.366L26,46.208V44.05a9.013,9.013,0,0,0,4.946-7.082A11.946,11.946,0,0,0,35,28a8.027,8.027,0,0,0-4.1-6.965,15.056,15.056,0,0,0-2.063-4.589l-.6-.908-3.934,3.148A6.027,6.027,0,0,1,20.544,20H17a7.953,7.953,0,0,0-2,.263V11H61V46a1,1,0,0,1-1,1ZM21,57h2v2H21ZM19,7H17V5h2Zm4,0H21V5h2Zm4,0H25V5h2Zm-6,6h2v2H21Zm4,0h2v2H25Zm-8,0h2v2H17ZM37,27H59V13H37Zm2-12H57V25H39Zm2,2H55v2H41Zm0,4H55v2H41Zm-4,8H47v2H37Zm0,4H47v2H37Zm-4,4H47v2H33Zm0,4H43v2H33Zm12,0h2v2H45Z" transform="translate(-1 -1)" fill="#fff"></path></svg>