<svg xmlns="http://www.w3.org/2000/svg" width="119" height="132" viewBox="0 0 119 132"><g transform="translate(-723 -2119)"><rect width="2" height="2" transform="translate(723 2119)" fill="#bbb"></rect><rect width="2" height="2" transform="translate(723 2132)" fill="#bbb"></rect><rect width="2" height="2" transform="translate(723 2145)" fill="#bbb"></rect><rect width="2" height="2" transform="translate(723 2158)" fill="#bbb"></rect><rect width="2" height="2" transform="translate(723 2171)" fill="#bbb"></rect><rect width="2" height="2" transform="translate(723 2184)" fill="#bbb"></rect><rect width="2" height="2" transform="translate(723 2197)" fill="#bbb"></rect><rect width="2" height="2" transform="translate(723 2210)" fill="#bbb"></rect><rect width="2" height="2" transform="translate(723 2223)" fill="#bbb"></rect><rect width="2" height="2" transform="translate(723 2236)" fill="#bbb"></rect><rect width="2" height="2" transform="translate(723 2249)" fill="#bbb"></rect><rect width="2" height="2" transform="translate(736 2119)" fill="#bbb"></rect><rect width="2" height="2" transform="translate(736 2132)" fill="#bbb"></rect><rect width="2" height="2" transform="translate(736 2145)" fill="#bbb"></rect><rect width="2" height="2" transform="translate(736 2158)" fill="#bbb"></rect><rect width="2" height="2" transform="translate(736 2171)" fill="#bbb"></rect><rect width="2" height="2" transform="translate(736 2184)" fill="#bbb"></rect><rect width="2" height="2" transform="translate(736 2197)" fill="#bbb"></rect><rect width="2" height="2" transform="translate(736 2210)" fill="#bbb"></rect><rect width="2" height="2" transform="translate(736 2223)" fill="#bbb"></rect><rect width="2" height="2" transform="translate(736 2236)" fill="#bbb"></rect><rect width="2" height="2" transform="translate(736 2249)" fill="#bbb"></rect><rect width="2" height="2" transform="translate(749 2119)" fill="#bbb"></rect><rect width="2" height="2" transform="translate(749 2132)" fill="#bbb"></rect><rect width="2" height="2" transform="translate(749 2145)" fill="#bbb"></rect><rect width="2" height="2" transform="translate(749 2158)" fill="#bbb"></rect><rect width="2" height="2" transform="translate(749 2171)" fill="#bbb"></rect><rect width="2" height="2" transform="translate(749 2184)" fill="#bbb"></rect><rect width="2" height="2" transform="translate(749 2197)" fill="#bbb"></rect><rect width="2" height="2" transform="translate(749 2210)" fill="#bbb"></rect><rect width="2" height="2" transform="translate(749 2223)" fill="#bbb"></rect><rect width="2" height="2" transform="translate(749 2236)" fill="#bbb"></rect><rect width="2" height="2" transform="translate(749 2249)" fill="#bbb"></rect><rect width="2" height="2" transform="translate(762 2119)" fill="#bbb"></rect><rect width="2" height="2" transform="translate(762 2132)" fill="#bbb"></rect><rect width="2" height="2" transform="translate(762 2145)" fill="#bbb"></rect><rect width="2" height="2" transform="translate(762 2158)" fill="#bbb"></rect><rect width="2" height="2" transform="translate(762 2171)" fill="#bbb"></rect><rect width="2" height="2" transform="translate(762 2184)" fill="#bbb"></rect><rect width="2" height="2" transform="translate(762 2197)" fill="#bbb"></rect><rect width="2" height="2" transform="translate(762 2210)" fill="#bbb"></rect><rect width="2" height="2" transform="translate(762 2223)" fill="#bbb"></rect><rect width="2" height="2" transform="translate(762 2236)" fill="#bbb"></rect><rect width="2" height="2" transform="translate(762 2249)" fill="#bbb"></rect><rect width="2" height="2" transform="translate(775 2119)" fill="#bbb"></rect><rect width="2" height="2" transform="translate(775 2132)" fill="#bbb"></rect><rect width="2" height="2" transform="translate(775 2145)" fill="#bbb"></rect><rect width="2" height="2" transform="translate(775 2158)" fill="#bbb"></rect><rect width="2" height="2" transform="translate(775 2171)" fill="#bbb"></rect><rect width="2" height="2" transform="translate(775 2184)" fill="#bbb"></rect><rect width="2" height="2" transform="translate(775 2197)" fill="#bbb"></rect><rect width="2" height="2" transform="translate(775 2210)" fill="#bbb"></rect><rect width="2" height="2" transform="translate(775 2223)" fill="#bbb"></rect><rect width="2" height="2" transform="translate(775 2236)" fill="#bbb"></rect><rect width="2" height="2" transform="translate(775 2249)" fill="#bbb"></rect><rect width="2" height="2" transform="translate(788 2119)" fill="#bbb"></rect><rect width="2" height="2" transform="translate(788 2132)" fill="#bbb"></rect><rect width="2" height="2" transform="translate(788 2145)" fill="#bbb"></rect><rect width="2" height="2" transform="translate(788 2158)" fill="#bbb"></rect><rect width="2" height="2" transform="translate(788 2171)" fill="#bbb"></rect><rect width="2" height="2" transform="translate(788 2184)" fill="#bbb"></rect><rect width="2" height="2" transform="translate(788 2197)" fill="#bbb"></rect><rect width="2" height="2" transform="translate(788 2210)" fill="#bbb"></rect><rect width="2" height="2" transform="translate(788 2223)" fill="#bbb"></rect><rect width="2" height="2" transform="translate(788 2236)" fill="#bbb"></rect><rect width="2" height="2" transform="translate(788 2249)" fill="#bbb"></rect><rect width="2" height="2" transform="translate(801 2119)" fill="#bbb"></rect><rect width="2" height="2" transform="translate(801 2132)" fill="#bbb"></rect><rect width="2" height="2" transform="translate(801 2145)" fill="#bbb"></rect><rect width="2" height="2" transform="translate(801 2158)" fill="#bbb"></rect><rect width="2" height="2" transform="translate(801 2171)" fill="#bbb"></rect><rect width="2" height="2" transform="translate(801 2184)" fill="#bbb"></rect><rect width="2" height="2" transform="translate(801 2197)" fill="#bbb"></rect><rect width="2" height="2" transform="translate(801 2210)" fill="#bbb"></rect><rect width="2" height="2" transform="translate(801 2223)" fill="#bbb"></rect><rect width="2" height="2" transform="translate(801 2236)" fill="#bbb"></rect><rect width="2" height="2" transform="translate(801 2249)" fill="#bbb"></rect><rect width="2" height="2" transform="translate(814 2119)" fill="#bbb"></rect><rect width="2" height="2" transform="translate(814 2132)" fill="#bbb"></rect><rect width="2" height="2" transform="translate(814 2145)" fill="#bbb"></rect><rect width="2" height="2" transform="translate(814 2158)" fill="#bbb"></rect><rect width="2" height="2" transform="translate(814 2171)" fill="#bbb"></rect><rect width="2" height="2" transform="translate(814 2184)" fill="#bbb"></rect><rect width="2" height="2" transform="translate(814 2197)" fill="#bbb"></rect><rect width="2" height="2" transform="translate(814 2210)" fill="#bbb"></rect><rect width="2" height="2" transform="translate(814 2223)" fill="#bbb"></rect><rect width="2" height="2" transform="translate(814 2236)" fill="#bbb"></rect><rect width="2" height="2" transform="translate(814 2249)" fill="#bbb"></rect><rect width="2" height="2" transform="translate(827 2119)" fill="#bbb"></rect><rect width="2" height="2" transform="translate(827 2132)" fill="#bbb"></rect><rect width="2" height="2" transform="translate(827 2145)" fill="#bbb"></rect><rect width="2" height="2" transform="translate(827 2158)" fill="#bbb"></rect><rect width="2" height="2" transform="translate(827 2171)" fill="#bbb"></rect><rect width="2" height="2" transform="translate(827 2184)" fill="#bbb"></rect><rect width="2" height="2" transform="translate(827 2197)" fill="#bbb"></rect><rect width="2" height="2" transform="translate(827 2210)" fill="#bbb"></rect><rect width="2" height="2" transform="translate(827 2223)" fill="#bbb"></rect><rect width="2" height="2" transform="translate(827 2236)" fill="#bbb"></rect><rect width="2" height="2" transform="translate(827 2249)" fill="#bbb"></rect><rect width="2" height="2" transform="translate(840 2119)" fill="#bbb"></rect><rect width="2" height="2" transform="translate(840 2132)" fill="#bbb"></rect><rect width="2" height="2" transform="translate(840 2145)" fill="#bbb"></rect><rect width="2" height="2" transform="translate(840 2158)" fill="#bbb"></rect><rect width="2" height="2" transform="translate(840 2171)" fill="#bbb"></rect><rect width="2" height="2" transform="translate(840 2184)" fill="#bbb"></rect><rect width="2" height="2" transform="translate(840 2197)" fill="#bbb"></rect><rect width="2" height="2" transform="translate(840 2210)" fill="#bbb"></rect><rect width="2" height="2" transform="translate(840 2223)" fill="#bbb"></rect><rect width="2" height="2" transform="translate(840 2236)" fill="#bbb"></rect><rect width="2" height="2" transform="translate(840 2249)" fill="#bbb"></rect></g></svg>