<svg xmlns="http://www.w3.org/2000/svg" xmlns:xlink="http://www.w3.org/1999/xlink" width="86.895" height="87" viewBox="0 0 86.895 87"><defs><linearGradient id="a" x1="0.5" x2="0.5" y2="1" gradientUnits="objectBoundingBox"><stop offset="0" stop-color="#fb9e44"></stop><stop offset="1" stop-color="#f57452"></stop></linearGradient></defs><g transform="translate(-1 -0.895)"><path d="M15.008,47.621v-2.8h4.2v-4.2a4.21,4.21,0,0,0-4.2-4.2H12.2a1.4,1.4,0,0,1-1.4-1.4v-1.4h4.2a1.4,1.4,0,0,1,1.4,1.4h2.8a4.21,4.21,0,0,0-4.2-4.2V28H12.2v2.8H8v4.2a4.21,4.21,0,0,0,4.2,4.2h2.8a1.4,1.4,0,0,1,1.4,1.4v1.4H12.2a1.4,1.4,0,0,1-1.4-1.4H8a4.21,4.21,0,0,0,4.2,4.2v2.8Z" transform="translate(2.811 10.841)" fill="url(#a)"></path><path d="M75.281,20.621a12.6,12.6,0,0,0-1.77.137,23.8,23.8,0,0,0-45.4-5.176,9.785,9.785,0,0,0-12.231,5.254,12.6,12.6,0,0,0-12.548,19.7A15.374,15.374,0,0,0,14.558,63.945L3.223,75.281l7.588,7.588L26.227,67.452l7.008,7.008,28.03-28.03,6.6,6.6,1.026-7.177h6.392a12.614,12.614,0,0,0,0-25.227ZM3.8,48.652A12.614,12.614,0,1,1,16.417,61.266,12.628,12.628,0,0,1,3.8,48.652Zm27.763-2.8h15.1L33.235,59.284,29.961,56.01a15.234,15.234,0,0,0,1.6-10.161Zm29.7-3.383L33.235,70.5l-7.008-7.008L10.811,78.905,7.186,75.281,18.567,63.9a15.4,15.4,0,0,0,9.8-5.523l4.87,4.87L57.641,38.841l-4.615-4.615,15-2.142-2.142,15Zm14.015.58H69.288L71.326,28.78,47.079,32.244l6.6,6.6-4.2,4.2H30.763a15.374,15.374,0,0,0-25.62-4.875,9.808,9.808,0,1,1,18.281-4.936h2.8a12.631,12.631,0,0,0-7.636-11.586,6.989,6.989,0,0,1,9.62-2.956l1.456.806.547-1.571a21,21,0,0,1,40.57,3.523,12.6,12.6,0,0,0-3.847,2.324l1.856,2.1a9.811,9.811,0,1,1,6.488,17.17Z" transform="translate(0 -0.105)" fill="url(#a)"></path><path d="M1,61H3.8v2.8H1Z" transform="translate(0 24.091)" fill="url(#a)"></path><path d="M61,61h2.8v2.8H61Z" transform="translate(24.091 24.091)" fill="url(#a)"></path><path d="M62.463,41H54.053V69.03h-2.8V52.212H42.841V69.03h-2.8V60.621H31.629V69.03h-2.8V57.818H20.417V69.03H5v2.8H80.682v-2.8H62.463Zm-5.606,2.8h2.8V69.03h-2.8ZM45.644,55.015h2.8V69.03h-2.8ZM34.432,63.424h2.8V69.03h-2.8Zm-11.212-2.8h2.8V69.03h-2.8Z" transform="translate(1.606 16.061)" fill="url(#a)"></path><path d="M40.923,5A18.251,18.251,0,0,0,23.74,17.147l2.642.935A15.445,15.445,0,0,1,40.923,7.8Z" transform="translate(9.131 1.606)" fill="url(#a)"></path><path d="M41.336,5.965A18.126,18.126,0,0,0,38.3,5.179l-.463,2.765a15.293,15.293,0,0,1,2.568.664Z" transform="translate(14.79 1.678)" fill="url(#a)"></path><path d="M58.2,24A4.21,4.21,0,0,1,54,28.2v2.8A7.016,7.016,0,0,0,61.008,24Z" transform="translate(21.281 9.235)" fill="url(#a)"></path><path d="M5,26.008H7.8a4.21,4.21,0,0,1,4.2-4.2V19A7.016,7.016,0,0,0,5,26.008Z" transform="translate(1.606 7.227)" fill="url(#a)"></path><path d="M35,17h2.8v2.8H35Z" transform="translate(13.652 6.424)" fill="url(#a)"></path><path d="M27,17h2.8v2.8H27Z" transform="translate(10.44 6.424)" fill="url(#a)"></path><path d="M23,17h2.8v2.8H23Z" transform="translate(8.834 6.424)" fill="url(#a)"></path><path d="M39,17h2.8v2.8H39Z" transform="translate(15.258 6.424)" fill="url(#a)"></path><path d="M31,17h2.8v2.8H31Z" transform="translate(12.046 6.424)" fill="url(#a)"></path></g></svg>