<svg xmlns="http://www.w3.org/2000/svg" xmlns:xlink="http://www.w3.org/1999/xlink" width="89" height="89" viewBox="0 0 89 89"><defs><linearGradient id="a" x1="0.5" x2="0.5" y2="1" gradientUnits="objectBoundingBox"><stop offset="0" stop-color="#fb9e44"></stop><stop offset="1" stop-color="#f57452"></stop></linearGradient></defs><g transform="translate(0 0.001)"><g transform="translate(35.536 20.729)"><path d="M200.884,112a8.884,8.884,0,1,0,8.884,8.884A8.884,8.884,0,0,0,200.884,112Zm0,14.807a5.923,5.923,0,1,1,5.923-5.923A5.923,5.923,0,0,1,200.884,126.808Z" transform="translate(-192 -112.001)" fill="url(#a)"></path></g><g transform="translate(23.019 -0.001)"><g transform="translate(0 0)"><path d="M161.644,42.421a18.905,18.905,0,0,0-1.544-1.385l.015-.043A36.245,36.245,0,0,0,146.631.275a1.481,1.481,0,0,0-1.721,0,36.245,36.245,0,0,0-13.484,40.718l.015.043a18.9,18.9,0,0,0-1.524,28.121,1.48,1.48,0,0,0,1.047.434,1.5,1.5,0,0,0,.468-.076,1.481,1.481,0,0,0,1-1.195l1.118-7.824a1.481,1.481,0,0,1,1.464-1.27h4.51L138.4,64.852a1.481,1.481,0,0,0,1.451,1.777h11.845a1.48,1.48,0,0,0,1.451-1.777l-1.125-5.627h4.51a1.481,1.481,0,0,1,1.464,1.272l1.118,7.822a1.481,1.481,0,0,0,1,1.195,1.5,1.5,0,0,0,.468.076,1.48,1.48,0,0,0,1.047-.434A18.9,18.9,0,0,0,161.644,42.421ZM145.77,3.321a33.408,33.408,0,0,1,8.754,10H137.017A33.409,33.409,0,0,1,145.77,3.321ZM135.012,56.265a4.463,4.463,0,0,0-4.4,3.814l-.641,4.491a15.912,15.912,0,0,1-2.59-10.123h0a15.966,15.966,0,0,1,5.034-10.379l3.918,12.2Zm6.642,7.4.888-4.442H149l.888,4.442Zm-2.208-7.4L134.572,41.1l-.326-1.014a33.293,33.293,0,0,1,1.281-23.8h20.486a33.292,33.292,0,0,1,1.281,23.8l-.326,1.014-4.874,15.165Zm22.12,8.305-.641-4.491a4.463,4.463,0,0,0-4.4-3.814h-1.324l3.921-12.2a15.993,15.993,0,0,1,2.44,20.5Z" transform="translate(-124.369 0.001)" fill="url(#a)"></path></g></g><g transform="translate(0 60.706)"><path d="M38.5,336.766v4.827a10.267,10.267,0,0,0-10.187,2.49,11.882,11.882,0,0,0-9.062-4.238,11.663,11.663,0,0,0-3.188.444A14.731,14.731,0,0,0,1.481,328H0v2.961H1.481a11.777,11.777,0,0,1,11.752,10.575,11.867,11.867,0,0,0-3.659,3.321A14.732,14.732,0,0,0,0,341.327v2.961a11.859,11.859,0,0,1,11.845,11.845h2.961A14.711,14.711,0,0,0,11.7,347.08a8.913,8.913,0,0,1,3.681-3.385.057.057,0,0,0,.046-.015,8.785,8.785,0,0,1,3.825-.874,8.9,8.9,0,0,1,7.218,3.749,11.06,11.06,0,0,0-1.3,5.135h2.961a8.012,8.012,0,0,1,1.233-4.278h-.009c.021-.028.049-.049.07-.078a7.378,7.378,0,0,1,9.071-2.6v3.879h2.961V336.766Z" transform="translate(0 -328)" fill="url(#a)"></path></g><g transform="translate(47.381 60.706)"><path d="M295.978,330.962h1.481V328h-1.481A14.731,14.731,0,0,0,281.4,340.29a11.663,11.663,0,0,0-3.188-.444,11.882,11.882,0,0,0-9.062,4.233,10.267,10.267,0,0,0-10.187-2.49v-4.827H256v11.845h2.961v-3.875a7.378,7.378,0,0,1,9.071,2.6c.021.03.049.05.07.078h-.009a8.011,8.011,0,0,1,1.233,4.279h2.961a11.059,11.059,0,0,0-1.3-5.135,8.9,8.9,0,0,1,7.218-3.749,8.787,8.787,0,0,1,3.825.877c.015.007.031.009.046.015a8.914,8.914,0,0,1,3.688,3.382,14.709,14.709,0,0,0-3.117,9.053h2.961a11.859,11.859,0,0,1,11.845-11.845v-2.961a14.735,14.735,0,0,0-9.574,3.531,11.867,11.867,0,0,0-3.659-3.321A11.777,11.777,0,0,1,295.978,330.962Z" transform="translate(-256 -328.001)" fill="url(#a)"></path></g><g transform="translate(37.016 42.939)"><rect width="3" height="3" transform="translate(-0.016 0.061)" fill="url(#a)"></rect></g><g transform="translate(42.939 42.939)"><rect width="3" height="3" transform="translate(0.061 0.061)" fill="url(#a)"></rect></g><g transform="translate(48.862 42.939)"><rect width="3" height="3" transform="translate(0.138 0.061)" fill="url(#a)"></rect></g><g transform="translate(16.287 78.475)"><rect width="3" height="3" transform="translate(-0.287 -0.475)" fill="url(#a)"></rect></g><g transform="translate(0 54.784)"><rect width="3" height="3" transform="translate(0 0.215)" fill="url(#a)"></rect></g><g transform="translate(82.917 68.11)"><rect width="3" height="3" transform="translate(0.083 -0.111)" fill="url(#a)"></rect></g><g transform="translate(71.072 62.187)"><rect width="3" height="3" transform="translate(-0.072 -0.188)" fill="url(#a)"></rect></g><g transform="translate(54.784 85.878)"><rect width="3" height="3" transform="translate(0.216 0.121)" fill="url(#a)"></rect></g><g transform="translate(85.878 51.823)"><rect width="3" height="3" transform="translate(0.122 0.177)" fill="url(#a)"></rect></g></g></svg>