<svg xmlns="http://www.w3.org/2000/svg" width="55.605" height="55.605" viewBox="0 0 55.605 55.605"><path d="M7.175,44.843H8.969v1.794H7.175ZM3.587,46.637H5.381V44.843H3.587Zm7.175,0h1.794V44.843H10.762Zm44.843-29.6v28.7a4.49,4.49,0,0,1-4.484,4.484H39.462v3.587h3.587v1.794H12.556V53.812h3.587V50.224H4.484A4.49,4.49,0,0,1,0,45.74V17.04a4.49,4.49,0,0,1,4.484-4.484H7.175V37.668H48.431V16.144h1.794V39.462H5.381V14.35h-.9A2.694,2.694,0,0,0,1.794,17.04V41.256H14.561l3.587,1.794H53.812V17.04a2.694,2.694,0,0,0-2.691-2.691H48.431V8.969H7.175v1.794H5.381V0H50.224V12.556h.9A4.49,4.49,0,0,1,55.605,17.04ZM48.431,7.175V1.794H7.175V7.175ZM37.668,50.224H17.937v3.587H37.668ZM53.812,45.74v-.9H17.726l-3.587-1.794H1.794V45.74a2.694,2.694,0,0,0,2.691,2.691H51.121A2.694,2.694,0,0,0,53.812,45.74ZM8.969,5.381h1.794V3.587H8.969Zm3.587,0H14.35V3.587H12.556Zm3.587-1.794V5.381h1.794V3.587ZM14.35,35.874V24.267a4.335,4.335,0,0,1-1.794-3.5v-.474a4.338,4.338,0,0,1,.223-1.375L15.5,10.762H40.108l2.717,8.153a4.314,4.314,0,0,1,.224,1.375v.474a4.333,4.333,0,0,1-1.794,3.5V35.874ZM29.6,28.7H26.009v5.381H29.6Zm9.865-3.665A4.226,4.226,0,0,1,35.123,23.2,4.34,4.34,0,0,1,27.8,23a4.34,4.34,0,0,1-7.32.2,4.226,4.226,0,0,1-4.339,1.831v9.046h8.072V26.906H31.39v7.175h8.072ZM34.3,12.556l1.562,7.175h.01v.043l.324,1.492a2.553,2.553,0,0,0,5.057-.5v-.474a2.535,2.535,0,0,0-.131-.807l-2.31-6.927Zm-1.838,0H28.7v7.086l.324,1.623a2.553,2.553,0,0,0,5.057-.5v-.937Zm-9.324,0-1.616,7.411v.8a2.553,2.553,0,0,0,5.057.5l.325-1.624V12.556ZM14.35,20.765a2.553,2.553,0,0,0,5.057.5l.342-1.711,1.554-7H16.79l-2.31,6.927a2.535,2.535,0,0,0-.131.807Zm0,0" fill="#9500ff"></path></svg>