<svg xmlns="http://www.w3.org/2000/svg" xmlns:xlink="http://www.w3.org/1999/xlink" width="204.84" height="179.195" viewBox="0 0 204.84 179.195"><defs><linearGradient id="a" x1="0.5" x2="0.5" y2="1" gradientUnits="objectBoundingBox"><stop offset="0" stop-color="#e5e9f2" stop-opacity="0.243"></stop><stop offset="1" stop-color="#737579" stop-opacity="0"></stop></linearGradient></defs><path d="M0-97.509v-51.21q0-42.008,19.2-69.614,20-28.406,58.412-38.808a9.142,9.142,0,0,1,8.2,1.6,8.947,8.947,0,0,1,3.8,7.6v13.6a9.361,9.361,0,0,1-1.8,5.4,8.265,8.265,0,0,1-4.6,3.4q-41.608,15.2-41.608,57.611H70.414a18.52,18.52,0,0,1,13.6,5.6,18.519,18.519,0,0,1,5.6,13.6v51.21a18.519,18.519,0,0,1-5.6,13.6,18.519,18.519,0,0,1-13.6,5.6H19.2a18.519,18.519,0,0,1-13.6-5.6A18.519,18.519,0,0,1,0-97.509Zm134.427,19.2h51.21a18.519,18.519,0,0,0,13.6-5.6,18.519,18.519,0,0,0,5.6-13.6v-51.21a18.519,18.519,0,0,0-5.6-13.6,18.52,18.52,0,0,0-13.6-5.6H156.831q0-42.408,41.608-57.611a8.265,8.265,0,0,0,4.6-3.4,9.361,9.361,0,0,0,1.8-5.4v-13.6a8.947,8.947,0,0,0-3.8-7.6,9.142,9.142,0,0,0-8.2-1.6q-38.408,10.4-58.412,38.808-19.2,27.605-19.2,69.614v51.21a18.519,18.519,0,0,0,5.6,13.6A18.519,18.519,0,0,0,134.427-78.305Z" transform="translate(0 257.5)" fill="url(#a)"></path></svg>